# Blender v2.78 (sub 0) OBJ File: 'human.blend'
# www.blender.org
mtllib handright.mtl
o Cube.009_Cube.013
hu
v 1.886056 5.724988 1.946182
v 1.886056 10.233774 1.946182
v 1.886056 5.724988 1.239450
v 1.886056 10.233774 1.239450
v 2.440639 5.724988 1.946182
v 2.440639 10.233774 1.946182
v 2.440639 5.724988 1.239450
v 2.440639 10.233774 1.239450
vn -1.0000 0.0000 0.0000
vn 0.0000 0.0000 -1.0000
vn 1.0000 0.0000 0.0000
vn 0.0000 0.0000 1.0000
vn 0.0000 -1.0000 0.0000
vn 0.0000 1.0000 0.0000
vt 0.1 0.1
vt 0.1 0.1
vt 0.1 0.1
vt 0.1 0.1
vt 0.1 0.1
vt 0.1 0.1
vt 0.1 0.1
vt 0.1 0.1
vt 0.1 0.1
vt 0.1 0.1
vt 0.1 0.1
vt 0.1 0.1
vt 0.1 0.1
vt 0.1 0.1
vt 0.1 0.1
usemtl None
s off
f 2/1/1 3/1/1 1/1/1
f 4/1/2 7/1/2 3/1/2
f 8/1/3 5/1/3 7/1/3
f 6/1/4 1/1/4 5/1/4
f 7/1/5 1/1/5 3/1/5
f 4/1/6 6/1/6 8/1/6
f 2/1/1 4/1/1 3/1/1
f 4/1/2 8/1/2 7/1/2
f 8/1/3 6/1/3 5/1/3
f 6/1/4 2/1/4 1/1/4
f 7/1/5 5/1/5 1/1/5
f 4/1/6 2/1/6 6/1/6

