# Blender v2.78 (sub 0) OBJ File: 'human.blend'
# www.blender.org
mtllib head.mtl
o Cube.003_Cube.005
hu
v -1.841092 16.518339 2.583575
v -1.615779 17.326763 2.583575
v -1.841092 16.518339 1.115592
v -1.660010 17.326763 1.115592
v -0.112034 16.518339 2.583575
v -0.286092 17.326763 2.583575
v -0.112034 16.518339 1.115592
v -0.273281 17.326763 1.115592
v -1.769639 15.057295 2.665560
v -2.025577 16.418091 2.665560
v -1.645160 15.057295 0.665560
v -2.025577 16.467178 1.109017
v -0.427900 15.057295 2.665560
v -0.025577 16.404974 2.665560
v -0.451894 15.057295 0.665560
v -0.025577 16.468174 1.158766
vn -0.9758 0.2186 0.0000
vn 0.0000 0.0000 -1.0000
vn 0.9807 0.1956 0.0000
vn 0.0000 0.0000 1.0000
vn 0.0000 -1.0000 0.0000
vn 0.0000 1.0000 0.0000
vn -0.9683 -0.2423 -0.0603
vn 0.0000 0.3000 -0.9539
vn 0.9583 -0.2855 -0.0115
vn 0.0066 0.9991 0.0419
vn -0.9629 0.2684 0.0290
vn 0.9776 0.2105 0.0085
vn -0.9828 -0.1848 -0.0058
vn 0.0234 0.3236 -0.9459
vn 0.9581 -0.2860 -0.0120
vn -0.0013 0.9995 0.0315
vt 0.1 0.1
vt 0.1 0.1
vt 0.1 0.1
vt 0.1 0.1
vt 0.1 0.1
vt 0.1 0.1
vt 0.1 0.1
vt 0.1 0.1
vt 0.1 0.1
vt 0.1 0.1
vt 0.1 0.1
vt 0.1 0.1
vt 0.1 0.1
vt 0.1 0.1
vt 0.1 0.1
vt 0.1 0.1
vt 0.1 0.1
vt 0.1 0.1
vt 0.1 0.1
usemtl None
s off
f 1/1/1 4/1/1 3/1/1
f 4/1/2 7/1/2 3/1/2
f 8/1/3 5/1/3 7/1/3
f 5/1/4 2/1/4 1/1/4
f 7/1/5 1/1/5 3/1/5
f 8/1/6 2/1/6 6/1/6
f 9/1/7 12/1/7 11/1/7
f 12/1/8 15/1/8 11/1/8
f 16/1/9 13/1/9 15/1/9
f 13/1/4 10/1/4 9/1/4
f 11/1/5 13/1/5 9/1/5
f 16/1/10 10/1/10 14/1/10
f 1/1/11 2/1/11 4/1/11
f 4/1/2 8/1/2 7/1/2
f 8/1/12 6/1/12 5/1/12
f 5/1/4 6/1/4 2/1/4
f 7/1/5 5/1/5 1/1/5
f 8/1/6 4/1/6 2/1/6
f 9/1/13 10/1/13 12/1/13
f 12/1/14 16/1/14 15/1/14
f 16/1/15 14/1/15 13/1/15
f 13/1/4 14/1/4 10/1/4
f 11/1/5 15/1/5 13/1/5
f 16/1/16 12/1/16 10/1/16

